<?xml version="1.0" encoding="UTF-8" standalone="no"?>
<!-- Created with Inkscape (http://www.inkscape.org/) -->

<svg
   width="93.932961mm"
   height="111.97011mm"
   viewBox="0 0 93.932961 111.97011"
   version="1.1"
   id="svg1"
   xml:space="preserve"
   xmlns="http://www.w3.org/2000/svg"
   xmlns:svg="http://www.w3.org/2000/svg"><defs
     id="defs1" /><g
     id="layer2"
     transform="translate(-63.918301,-80.989785)"><path
       id="path46"
       style="opacity:1;stroke-width:0.244745"
       d="m 77.651831,81.019945 a 27.501443,10.766962 65.856372 0 0 -1.370976,0.37931 27.501443,10.766962 65.856372 0 0 1.545126,29.617835 27.501443,10.766962 65.856372 0 0 12.423529,17.81389 38.010708,34.932919 0 0 0 -6.42545,4.73253 38.010708,34.932919 0 0 0 -9.302787,13.92525 38.010708,34.932919 0 0 0 -1.458309,5.71283 38.010708,34.932919 0 0 0 -0.406694,5.0953 38.010708,34.932919 0 0 0 0.163815,3.23856 22.006201,23.633765 0 0 1 0.155029,1.27589 22.006201,23.633765 0 0 1 0.115755,2.41949 22.006201,23.633765 0 0 1 -0.209806,3.25458 22.006201,23.633765 0 0 1 -8.962761,15.94425 22.608014,23.237316 0 0 0 17.436658,8.44651 22.608014,23.237316 0 0 0 11.88817,-3.47214 20.472755,20.609692 0 0 1 -0.80874,-0.59427 20.472755,20.609692 0 0 1 -7.70857,-12.8788 20.472755,19.753529 0 0 0 4.64984,1.87688 20.472755,19.753529 0 0 1 -3.48816,-11.02878 20.472755,19.753529 0 0 1 0.0594,-1.50585 20.472755,19.753529 0 0 1 0.0765,-0.76585 20.472755,19.753529 0 0 1 0.004,-0.032 24.789677,18.948704 0 0 0 0.0124,-0.008 24.789677,18.948704 0 0 0 4.11086,-3.15639 24.789677,18.948704 0 0 0 4.37648,-6.60839 24.789677,18.948704 0 0 0 0.032,-0.0889 9.0917225,9.9998608 0 0 1 0.0207,0.67231 9.0917225,9.9998608 0 0 1 -1.78181,5.94589 24.093296,25.166134 0 0 0 3.14813,-0.49609 20.472755,19.753529 0 0 1 2.47892,-4.90358 20.472755,19.753529 0 0 0 -2.47892,4.90358 24.093296,25.166134 0 0 0 14.91227,-10.66343 24.093296,25.166134 0 0 0 15.02544,10.76006 24.093296,25.166134 0 0 0 3.08818,0.48266 9.0917225,9.9998608 0 0 1 -1.7818,-5.94589 9.0917225,9.9998608 0 0 1 0.0207,-0.67231 24.789677,18.948704 0 0 0 0.032,0.0889 24.789677,18.948704 0 0 0 4.37647,6.60838 24.789677,18.948704 0 0 0 4.11086,3.1564 24.789677,18.948704 0 0 0 0.0124,0.008 20.472755,19.753529 0 0 1 0.004,0.032 20.472755,19.753529 0 0 1 0.0765,0.76585 20.472755,19.753529 0 0 1 0.0594,1.50585 20.472755,19.753529 0 0 1 -3.48816,11.02878 20.472755,19.753529 0 0 0 4.64985,-1.87689 20.472755,20.609692 0 0 1 -7.1019,12.39098 38.010708,34.932919 0 0 0 7.76749,-5.55987 38.010708,34.932919 0 0 1 -7.76749,5.55987 38.010708,34.932919 0 0 1 -5.1e-4,5.2e-4 20.472755,20.609692 0 0 1 -1.41542,1.0821 22.608014,23.237316 0 0 0 11.88816,3.47214 22.608014,23.237316 0 0 0 17.43666,-8.44651 22.006201,23.633765 0 0 1 -8.96276,-15.94425 22.006201,23.633765 0 0 1 -0.2098,-3.25458 22.006201,23.633765 0 0 1 0.11575,-2.41949 22.006201,23.633765 0 0 1 0.15503,-1.27589 38.010708,34.932919 0 0 0 0.16382,-3.23856 38.010708,34.932919 0 0 0 -0.4067,-5.0953 38.010708,34.932919 0 0 0 -1.45831,-5.71283 38.010708,34.932919 0 0 0 -9.30279,-13.92525 38.010708,34.932919 0 0 0 -6.42545,-4.73253 10.766962,27.501443 24.143628 0 0 12.42354,-17.8139 10.766962,27.501443 24.143628 0 0 1.54512,-29.617835 10.766962,27.501443 24.143628 0 0 -1.37097,-0.3793 10.766962,27.501443 24.143628 0 0 -19.69441,20.901055 10.766962,27.501443 24.143628 0 0 -5.11493,22.26582 38.010708,34.932919 0 0 0 -1.41335,-0.21394 38.010708,34.932919 0 0 0 -0.006,-0.002 38.010708,34.932919 0 0 0 -2.09445,-0.31678 38.010708,34.932919 0 0 0 -1.58802,-0.13642 l -5.1e-4,5.1e-4 a 38.010708,34.932919 0 0 0 -2.66496,-0.22944 38.010708,34.932919 0 0 0 -0.87385,-0.009 38.010708,34.932919 0 0 0 -8.20569,0.82372 27.501443,10.766962 65.856372 0 0 -5.11494,-22.26634 27.501443,10.766962 65.856372 0 0 -19.694402,-20.901055 z m 34.479029,66.806265 a 20.472755,19.753529 0 0 1 7.50342,3.91346 20.472755,19.753529 0 0 1 2.0438,1.93321 20.472755,19.753529 0 0 0 -2.0438,-1.93321 20.472755,19.753529 0 0 0 -7.50342,-3.91346 z m -5.14852,1.03353 a 20.472755,19.753529 0 0 0 -4.78214,2.91093 20.472755,19.753529 0 0 0 -2.03346,1.9048 20.472755,19.753529 0 0 1 2.03346,-1.9048 20.472755,19.753529 0 0 1 4.78214,-2.91093 z m -8.39897,14.8823 a 5.443131,6.9271097 0 0 0 -3.59565,1.7265 5.443131,6.9271097 0 0 0 -1.84743,5.20072 5.443131,6.9271097 0 0 0 3.79357,6.60167 5.443131,6.9271097 0 0 0 1.64951,0.32556 5.443131,6.9271097 0 0 0 5.4436,-6.92723 5.443131,6.9271097 0 0 0 -5.4436,-6.92722 z m 24.60315,0.0837 a 5.443131,6.9271097 0 0 0 -5.4436,6.92723 5.443131,6.9271097 0 0 0 5.4436,6.92722 5.443131,6.9271097 0 0 0 1.6061,-0.30851 5.443131,6.9271097 0 0 0 3.83697,-6.61871 5.443131,6.9271097 0 0 0 -1.83503,-5.18677 5.443131,6.9271097 0 0 0 -3.60804,-1.74046 z" /></g></svg>
